<?xml version="1.0" encoding="utf-8"?>
<!-- Generator: Adobe Illustrator 24.3.0, SVG Export Plug-In . SVG Version: 6.00 Build 0)  -->
<svg version="1.1" id="Layer_1" xmlns="http://www.w3.org/2000/svg" xmlns:xlink="http://www.w3.org/1999/xlink" x="0px" y="0px"
	 viewBox="0 0 325.7 109.8" style="enable-background:new 0 0 325.7 109.8;" xml:space="preserve">
<style type="text/css">
	.st0{fill:#58B999;}
</style>
<g>
	<path class="st0" d="M176.4,41.4c-3.1-2.7-7.2-4.3-12.4-4.3c-11.1,0-18.7,7.9-18.7,18.2c0,10.5,7.4,18.4,19.4,18.4
		c4.6,0,8.3-1.1,11.4-3.2c0.8-0.6,1.9-1.4,2.7-2.2c0.8-0.8,1.3-1.6,1.5-1.9c0.5-0.7,0.1-1.2-0.9-1.4c0,0-5.5-1.9-7.4-2.5
		c-0.7-0.2-1.2,0.1-1.4,0.5c-1.1,1.8-3,2.8-5.7,2.8c-4.1,0-6.7-2.2-7.8-5.8c-0.3-0.9,0.4-1.7,1.3-1.7h23.1c0.8,0,1.4-0.6,1.3-1.4
		C182.5,50.4,180.4,44.9,176.4,41.4 M158.5,51.7c-0.9,0-1.6-0.9-1.3-1.8c1.1-3.1,3.2-5,7-5c3.2,0,5.6,1.9,6.5,5
		c0.2,0.9-0.4,1.7-1.3,1.7H158.5z"/>
	<path class="st0" d="M83.3,37.2c-11.7,0-19.5,7.9-19.5,18.3c0,10.4,7.8,18.3,19.5,18.3c11.7,0,19.4-7.9,19.4-18.3
		C102.7,45.1,95,37.2,83.3,37.2 M83.3,64.2c-4.4,0-8.1-3.3-8.1-8.6c0-5.4,3.8-8.8,8.1-8.8c4.4,0,8.1,3.4,8.1,8.8
		C91.4,60.9,87.6,64.2,83.3,64.2"/>
	<path class="st0" d="M27.7,27.2h8.9c0.7,0,1.3,0.6,1.3,1.3v13.8h0.2c2.6-3.3,5.8-5.3,10.8-5.3c8,0,12.6,5.4,12.6,13.1v21.1
		c0,0.7-0.6,1.3-1.3,1.3h-8.9c-0.7,0-1.3-0.6-1.3-1.3V52.4c0-3.6-1.9-6.1-5.7-6.1c-3.8,0-6.4,3-6.4,7.3v17.8c0,0.7-0.6,1.3-1.3,1.3
		h-8.9c-0.7,0-1.3-0.6-1.3-1.3V28.6C26.3,27.8,26.9,27.2,27.7,27.2"/>
	<path class="st0" d="M127.4,37.1c-5,0-8.5,2.1-11,5.2h-0.2v-2.8c0-0.7-0.6-1.3-1.3-1.3h-8.4c-0.7,0-1.3,0.6-1.3,1.3v41.8
		c0,0.7,0.6,1.3,1.3,1.3h8.9c0.7,0,1.3-0.6,1.3-1.3V69.1h0.1c2.3,2.9,5.6,4.7,10.3,4.7c9.5,0,15.8-7.2,15.8-18.4
		C143,45,137.1,37.1,127.4,37.1 M123.4,64.1c-4.7,0-7-4.2-7-8.5c0-6.2,3.4-8.8,7-8.8c4.2,0,7,3.5,7,8.8
		C130.4,61,127.1,64.1,123.4,64.1"/>
	<g>
		<path class="st0" d="M190.3,56.3c1.3,0,2.2,1,2.2,2.2v0.1c0,1.2-1,2.2-2.2,2.2c-1.3,0-2.2-1-2.2-2.2v-0.1
			C188.1,57.3,189.1,56.3,190.3,56.3"/>
		<path class="st0" d="M187.8,45.5c0-5.3,3.4-9.3,8.8-9.3c5.4,0,8.8,4,8.8,9.3s-3.4,9.3-8.8,9.3C191.3,54.8,187.8,50.8,187.8,45.5z
			 M201,45.5c0-3.2-1.4-5.7-4.3-5.7c-2.9,0-4.3,2.5-4.3,5.7c0,3.2,1.5,5.7,4.3,5.7C199.6,51.2,201,48.7,201,45.5z"/>
		<path class="st0" d="M206.5,41.6h3.9v1.8h0.1c0.8-1.3,2-2.2,3.9-2.2c1.7,0,2.9,0.9,3.6,2.2h0c1-1.5,2.4-2.2,4-2.2
			c2.9,0,4.3,2,4.3,4.8v8.3h-4.1v-7.6c0-1.4-0.6-2.2-1.8-2.2c-1.3,0-2,1.1-2,2.6v7.2h-4.1v-7.6c0-1.4-0.6-2.2-1.8-2.2
			c-1.3,0-2,1.1-2,2.6v7.2h-4.1V41.6z"/>
		<path class="st0" d="M227.1,50.8c0-2.8,2.2-3.7,4.9-4c2.4-0.3,3.2-0.5,3.2-1.4c0-0.8-0.5-1.4-1.7-1.4c-1.3,0-1.9,0.6-2.1,1.6h-3.7
			c0.1-2.4,1.9-4.4,5.8-4.4c1.9,0,3.2,0.4,4.1,1c1.1,0.8,1.6,2,1.6,3.6v6.4c0,1,0.1,1.6,0.5,1.8v0.2h-3.9c-0.2-0.3-0.3-0.8-0.4-1.4
			h0c-0.8,1.1-1.9,1.7-3.8,1.7C228.9,54.7,227.1,53.3,227.1,50.8z M235.4,49.8v-1.5c-0.5,0.3-1.3,0.5-2.1,0.7
			c-1.6,0.4-2.2,0.8-2.2,1.7c0,1,0.8,1.4,1.8,1.4C234.3,52.1,235.4,51.2,235.4,49.8z"/>
		<path class="st0" d="M188.3,61.6h4.1v12.8h-4.1V61.6z"/>
		<path class="st0" d="M193.9,56.5h4.1v17.9h-4.1V56.5z"/>
		<path class="st0" d="M199.5,61.6h3.9v1.8h0.1c0.8-1.3,2-2.2,3.9-2.2c1.7,0,2.9,0.9,3.6,2.2h0c1-1.5,2.4-2.2,4-2.2
			c2.9,0,4.3,2,4.3,4.8v8.3h-4.1v-7.6c0-1.4-0.6-2.2-1.8-2.2c-1.3,0-2,1.1-2,2.6v7.2h-4.1v-7.6c0-1.4-0.6-2.2-1.8-2.2
			c-1.3,0-2,1.1-2,2.6v7.2h-4.1V61.6z"/>
		<path class="st0" d="M220.1,70.8c0-2.8,2.2-3.7,4.9-4c2.4-0.3,3.2-0.5,3.2-1.4c0-0.8-0.5-1.4-1.7-1.4c-1.3,0-1.9,0.6-2.1,1.6h-3.7
			c0.1-2.4,1.9-4.4,5.8-4.4c1.9,0,3.2,0.3,4.1,1c1.1,0.8,1.6,2,1.6,3.6v6.4c0,1,0.1,1.6,0.5,1.8v0.2h-3.9c-0.2-0.3-0.3-0.8-0.4-1.4
			h0c-0.8,1.1-1.9,1.8-3.8,1.8C221.9,74.7,220.1,73.3,220.1,70.8z M228.3,69.8v-1.5c-0.5,0.3-1.3,0.5-2.1,0.7
			c-1.6,0.3-2.2,0.8-2.2,1.7c0,1,0.8,1.4,1.8,1.4C227.3,72.1,228.3,71.2,228.3,69.8z"/>
		<path class="st0" d="M233.7,61.6h3.9v1.8h0.1c1-1.4,2.2-2.1,3.9-2.1c2.8,0,4.4,2,4.4,4.8v8.3H242v-7.5c0-1.3-0.7-2.3-2-2.3
			c-1.3,0-2.2,1.1-2.2,2.7v7.1h-4.1V61.6z"/>
		<path class="st0" d="M247.5,56.5h4.1v17.9h-4.1V56.5z"/>
		<path class="st0" d="M252.5,70.8c0-2.8,2.2-3.7,4.9-4c2.4-0.3,3.2-0.5,3.2-1.4c0-0.8-0.5-1.4-1.7-1.4c-1.3,0-1.9,0.6-2.1,1.6h-3.7
			c0.1-2.4,1.9-4.4,5.8-4.4c1.9,0,3.2,0.3,4.1,1c1.1,0.8,1.6,2,1.6,3.6v6.4c0,1,0.1,1.6,0.5,1.8v0.2h-3.9c-0.2-0.3-0.3-0.8-0.4-1.4
			h0c-0.8,1.1-1.9,1.8-3.8,1.8C254.3,74.7,252.5,73.3,252.5,70.8z M260.7,69.8v-1.5c-0.5,0.3-1.3,0.5-2.1,0.7
			c-1.6,0.3-2.2,0.8-2.2,1.7c0,1,0.8,1.4,1.8,1.4C259.7,72.1,260.7,71.2,260.7,69.8z"/>
		<path class="st0" d="M265.5,70.8c0-2.8,2.2-3.7,4.9-4c2.4-0.3,3.2-0.5,3.2-1.4c0-0.8-0.5-1.4-1.7-1.4c-1.3,0-1.9,0.6-2.1,1.6h-3.7
			c0.1-2.4,1.9-4.4,5.8-4.4c1.9,0,3.2,0.3,4.1,1c1.1,0.8,1.6,2,1.6,3.6v6.4c0,1,0.1,1.6,0.5,1.8v0.2h-3.9c-0.2-0.3-0.3-0.8-0.4-1.4
			h0c-0.8,1.1-1.9,1.8-3.8,1.8C267.3,74.7,265.5,73.3,265.5,70.8z M273.8,69.8v-1.5c-0.5,0.3-1.3,0.5-2.1,0.7
			c-1.6,0.3-2.2,0.8-2.2,1.7c0,1,0.8,1.4,1.8,1.4C272.7,72.1,273.8,71.2,273.8,69.8z"/>
		<path class="st0" d="M279.9,71v-6.9h-1.7v-2.5h1.7v-4h4v4h2.3v2.5h-2.3v6c0,1,0.5,1.2,1.4,1.2c0.3,0,0.8,0,0.9,0v3
			c-0.4,0.1-1.1,0.2-2.2,0.2C281.6,74.5,279.9,73.8,279.9,71z"/>
		<path class="st0" d="M287.1,70v-8.4h4v7.5c0,1.4,0.6,2.2,1.9,2.2c1.4,0,2.2-1,2.2-2.6v-7.1h4.1v12.8h-3.9v-1.6h-0.1
			c-0.9,1.2-2,1.9-3.8,1.9C288.6,74.8,287.1,72.8,287.1,70z"/>
	</g>
</g>
</svg>
