<?xml version="1.0" encoding="UTF-8" standalone="no"?><!DOCTYPE svg PUBLIC "-//W3C//DTD SVG 1.1//EN" "http://www.w3.org/Graphics/SVG/1.1/DTD/svg11.dtd"><svg width="100%" height="100%" viewBox="0 0 100 100" version="1.1" xmlns="http://www.w3.org/2000/svg" xmlns:xlink="http://www.w3.org/1999/xlink" xml:space="preserve" xmlns:serif="http://www.serif.com/" style="fill-rule:evenodd;clip-rule:evenodd;stroke-linejoin:round;stroke-miterlimit:2;"><path d="M63.182,7.998c-8.405,3.204 -17.352,7.588 -26.977,12.108c-0.161,0.08 -0.304,0.197 -0.414,0.339c-2.651,3.307 -4.131,8.274 -5.202,13.618c-1.034,5.163 -1.641,10.655 -2.223,15.349l-19.109,24c-0.39,0.47 -0.337,1.243 0.113,1.656l21.483,19.562l-21.86,0l0,2.407l71.159,0l0,-2.407l-36.409,0l28.871,-32.917c0.388,-0.447 0.37,-1.189 -0.038,-1.618l-8.178,-8.163c1.641,-1.442 3.159,-2.857 4.447,-4.326c3.153,-3.597 5.031,-7.769 5.201,-13.581l16.32,-7.448c0.393,-0.208 0.651,-0.647 0.641,-1.091l0,-21.195c0.001,-0.606 -0.525,-1.166 -1.131,-1.204c-9.121,-0.764 -19.313,2.127 -26.694,4.911Zm-20.306,27.081l10.29,10.27c-2.704,3.149 -5.413,5.959 -7.274,8.389c-2.114,2.399 -3.399,5.609 -1.583,8.05c3.535,3.233 8.406,0.471 11.307,-2.37c2.35,-2.028 4.838,-4.131 6.935,-5.906l7.5,7.486l-29.474,33.632l-6.181,0l-22.538,-20.578c10.367,-13.025 20.721,-25.923 31.018,-38.973Z" style="fill:#fff;fill-rule:nonzero;"/></svg>