<svg xmlns="http://www.w3.org/2000/svg" xmlns:xlink="http://www.w3.org/1999/xlink" version="1.1" x="0px" y="0px" viewBox="0 0 100 100" style="enable-background:new 0 0 100 100;" xml:space="preserve"><style type="text/css">
	.st0{fill:none;}
</style><g><circle class="st0" cx="67" cy="36" r="5"/><circle class="st0" cx="33" cy="36" r="5"/><path class="st0" d="M50,9C27.4,9,9,27.4,9,50s18.4,41,41,41s41-18.4,41-41S72.6,9,50,9z M67,27c5,0,9,4,9,9s-4,9-9,9s-9-4-9-9   S62,27,67,27z M33,27c5,0,9,4,9,9s-4,9-9,9s-9-4-9-9S28,27,33,27z M75,66H25c-1.1,0-2-0.9-2-2s0.9-2,2-2h50c1.1,0,2,0.9,2,2   S76.1,66,75,66z"/><path d="M50,5C25.2,5,5,25.2,5,50c0,24.8,20.2,45,45,45c24.8,0,45-20.2,45-45C95,25.2,74.8,5,50,5z M50,91C27.4,91,9,72.6,9,50   S27.4,9,50,9s41,18.4,41,41S72.6,91,50,91z"/><path d="M33,45c5,0,9-4,9-9s-4-9-9-9s-9,4-9,9S28,45,33,45z M33,31c2.8,0,5,2.2,5,5s-2.2,5-5,5s-5-2.2-5-5S30.2,31,33,31z"/><path d="M67,45c5,0,9-4,9-9s-4-9-9-9s-9,4-9,9S62,45,67,45z M67,31c2.8,0,5,2.2,5,5s-2.2,5-5,5s-5-2.2-5-5S64.2,31,67,31z"/><path d="M75,62H25c-1.1,0-2,0.9-2,2s0.9,2,2,2h50c1.1,0,2-0.9,2-2S76.1,62,75,62z"/></g></svg>