<?xml version="1.0" encoding="UTF-8" standalone="no"?><!DOCTYPE svg PUBLIC "-//W3C//DTD SVG 1.1//EN" "http://www.w3.org/Graphics/SVG/1.1/DTD/svg11.dtd"><svg width="100%" height="100%" viewBox="0 0 64 64" version="1.1" xmlns="http://www.w3.org/2000/svg" xmlns:xlink="http://www.w3.org/1999/xlink" xml:space="preserve" xmlns:serif="http://www.serif.com/" style="fill-rule:evenodd;clip-rule:evenodd;stroke-linejoin:round;stroke-miterlimit:2;"><g><g><path d="M21.621,21.353l3.999,7.219l-2.514,1.257l6.894,5.171l0,-8.618l-2.59,1.295l-4.046,-7.305c-0.483,-0.847 -1.388,-1.372 -2.364,-1.372c-0.976,0 -1.881,0.525 -2.364,1.372l-3.504,6.132l1.736,0.992l3.504,-6.132c0.258,-0.449 1.005,-0.437 1.249,-0.011Zm6.379,9.647l-1.105,-0.829l1.105,-0.553l0,1.382Z" style="fill:#fff;fill-rule:nonzero;"/><path d="M32.861,38.517l-1.723,1.016l3.765,6.382c0.129,0.226 0.129,0.504 -0.002,0.728c-0.129,0.22 -0.367,0.357 -0.632,0.357l-0.007,0l-7.262,0l0,-3.767l-8.243,4.946l8.243,3.298l0,-2.477l7.278,0c0.965,0 1.864,-0.516 2.352,-1.351c0.49,-0.841 0.492,-1.889 0.001,-2.742l-3.77,-6.39Zm-7.861,10.006l-1.757,-0.703l1.757,-1.053l0,1.756Z" style="fill:#fff;fill-rule:nonzero;"/><path d="M7.096,46.636c-0.129,-0.226 -0.127,-0.504 0.014,-0.742l3.917,-6.911l2.973,1.784l0,-9.533l-7.943,4.766l3.254,1.953l-3.933,6.939c-0.495,0.839 -0.503,1.887 -0.021,2.733c0.482,0.847 1.387,1.373 2.365,1.375l7.278,0l0,-2l-7.276,0c-0.26,0 -0.501,-0.14 -0.628,-0.364Zm4.904,-11.869l0,2.467l-2.057,-1.234l2.057,-1.233Z" style="fill:#fff;fill-rule:nonzero;"/><path d="M56,1l-26,0c-3.454,0 -6.413,2.66 -6.916,6l-15.084,0c-3.859,0 -7,3.141 -7,7l0,42c0,3.859 3.141,7 7,7l26,0c3.519,0 6.432,-2.614 6.92,-6l15.08,0c3.794,0 7,-3.206 7,-7l0,-42c0,-3.794 -3.206,-7 -7,-7Zm-17,55c0,2.757 -2.243,5 -5,5l-26,0c-2.757,0 -5,-2.243 -5,-5l0,-42c0,-2.757 2.243,-5 5,-5l26,0c2.757,0 5,2.243 5,5l0,42Zm2,-13l16,0l0,4l-16,0l0,-4Zm6.805,-25l3.195,-5.113l3.195,5.113l-6.39,0Zm5.195,2l0,21l-4,0l0,-21l4,0Zm8,30c0,2.71 -2.29,5 -5,5l-15,0l0,-6l16,0c1.103,0 2,-0.897 2,-2l0,-4c0,-1.103 -0.897,-2 -2,-2l-2,0l0,-21l2.805,0l-6.805,-10.887l-6.805,10.887l2.805,0l0,21l-6,0l0,-27c0,-3.859 -3.141,-7 -7,-7l-8.894,0c0.478,-2.25 2.525,-4 4.894,-4l26,0c2.71,0 5,2.29 5,5l0,42Z" style="fill:#fff;fill-rule:nonzero;"/></g></g></svg>