<svg xmlns="http://www.w3.org/2000/svg" xmlns:xlink="http://www.w3.org/1999/xlink" version="1.1" x="0px" y="0px" viewBox="0 0 100 100" xml:space="preserve"><style type="text/css">
	.st0{fill:none;}
</style><g><path class="st0" d="M50,75c10.7,0,19.5-6.1,20.8-14H29.2C30.5,68.9,39.3,75,50,75z"/><path class="st0" d="M50,9C27.4,9,9,27.4,9,50s18.4,41,41,41s41-18.4,41-41S72.6,9,50,9z M23,38c0-5.5,4-10,9-10s9,4.5,9,10   c0,1.1-0.9,2-2,2s-2-0.9-2-2c0-3.3-2.2-6-5-6s-5,2.7-5,6c0,1.1-0.9,2-2,2S23,39.1,23,38z M50,79c-13.8,0-25-9-25-20   c0-1.1,0.9-2,2-2h46c1.1,0,2,0.9,2,2C75,70,63.8,79,50,79z M75,40c-1.1,0-2-0.9-2-2c0-3.3-2.2-6-5-6s-5,2.7-5,6c0,1.1-0.9,2-2,2   s-2-0.9-2-2c0-5.5,4-10,9-10s9,4.5,9,10C77,39.1,76.1,40,75,40z"/><path d="M27,38c0-3.3,2.2-6,5-6s5,2.7,5,6c0,1.1,0.9,2,2,2s2-0.9,2-2c0-5.5-4-10-9-10s-9,4.5-9,10c0,1.1,0.9,2,2,2S27,39.1,27,38z"/><path d="M68,28c-5,0-9,4.5-9,10c0,1.1,0.9,2,2,2s2-0.9,2-2c0-3.3,2.2-6,5-6s5,2.7,5,6c0,1.1,0.9,2,2,2s2-0.9,2-2   C77,32.5,73,28,68,28z"/><path d="M50,5C25.2,5,5,25.2,5,50c0,24.8,20.2,45,45,45c24.8,0,45-20.2,45-45C95,25.2,74.8,5,50,5z M50,91C27.4,91,9,72.6,9,50   S27.4,9,50,9s41,18.4,41,41S72.6,91,50,91z"/><path d="M73,57H27c-1.1,0-2,0.9-2,2c0,11,11.2,20,25,20s25-9,25-20C75,57.9,74.1,57,73,57z M50,75c-10.7,0-19.5-6.1-20.8-14h41.7   C69.5,68.9,60.7,75,50,75z"/></g></svg>
