<?xml version="1.0" encoding="UTF-8" standalone="no"?><!DOCTYPE svg PUBLIC "-//W3C//DTD SVG 1.1//EN" "http://www.w3.org/Graphics/SVG/1.1/DTD/svg11.dtd"><svg width="100%" height="100%" viewBox="0 0 64 64" version="1.1" xmlns="http://www.w3.org/2000/svg" xmlns:xlink="http://www.w3.org/1999/xlink" xml:space="preserve" xmlns:serif="http://www.serif.com/" style="fill-rule:evenodd;clip-rule:evenodd;stroke-linejoin:round;stroke-miterlimit:2;"><g><path d="M61,19l-17,0l0,-2l3,0l0,-2l-4,0c-0.549,0 -1,0.451 -1,1l0,3l-13,0l0,-2l3,0l0,-2l-4,0c-0.549,0 -1,0.451 -1,1l0,3l-2,0c-4.935,0.006 -8.994,4.065 -9,9l0,4c0,0.549 0.451,1 1,1l44,0c0.549,0 1,-0.451 1,-1l0,-12c0,-0.549 -0.451,-1 -1,-1Zm-1,12l-42,0l0,-3c0.004,-3.838 3.162,-6.996 7,-7l35,0l0,10Z" style="fill:#fff;fill-rule:nonzero;"/><path d="M24,24l0,4c0,0.549 0.451,1 1,1l4,0c0.549,0 1,-0.451 1,-1l0,-4c0,-0.549 -0.451,-1 -1,-1l-4,0c-0.549,0 -1,0.451 -1,1Zm2,1l2,0l0,2l-2,0l0,-2Z" style="fill:#fff;fill-rule:nonzero;"/><path d="M33,29l4,0c0.549,0 1,-0.451 1,-1l0,-4c0,-0.549 -0.451,-1 -1,-1l-4,0c-0.549,0 -1,0.451 -1,1l0,4c0,0.549 0.451,1 1,1Zm1,-4l2,0l0,2l-2,0l0,-2Z" style="fill:#fff;fill-rule:nonzero;"/><path d="M41,29l4,0c0.549,0 1,-0.451 1,-1l0,-4c0,-0.549 -0.451,-1 -1,-1l-4,0c-0.549,0 -1,0.451 -1,1l0,4c0,0.549 0.451,1 1,1Zm1,-4l2,0l0,2l-2,0l0,-2Z" style="fill:#fff;fill-rule:nonzero;"/><path d="M49,29l4,0c0.549,0 1,-0.451 1,-1l0,-4c0,-0.549 -0.451,-1 -1,-1l-4,0c-0.549,0 -1,0.451 -1,1l0,4c0,0.549 0.451,1 1,1Zm1,-4l2,0l0,2l-2,0l0,-2Z" style="fill:#fff;fill-rule:nonzero;"/><path d="M21,49l6,0c0.549,0 1,-0.451 1,-1l0,-6c0,-0.549 -0.451,-1 -1,-1l-6,0c-0.549,0 -1,0.451 -1,1l0,6c0,0.549 0.451,1 1,1Zm1,-6l4,0l0,4l-4,0l0,-4Z" style="fill:#fff;fill-rule:nonzero;"/><path d="M11,49l6,0c0.549,0 1,-0.451 1,-1l0,-6c0,-0.549 -0.451,-1 -1,-1l-6,0c-0.549,0 -1,0.451 -1,1l0,6c0,0.549 0.451,1 1,1Zm1,-6l4,0l0,4l-4,0l0,-4Z" style="fill:#fff;fill-rule:nonzero;"/><path d="M3,13l7,0l0,6c0,0.549 0.451,1 1,1l3,0c0.323,0 0.626,-0.156 0.814,-0.419l4.701,-6.581l9.485,0c0.549,0 1,-0.451 1,-1c-0.003,-3.29 -2.71,-5.997 -6,-6l-14.382,0l-1.718,-3.447c-0.17,-0.34 -0.52,-0.555 -0.9,-0.553l-4,0c-0.549,0 -1,0.451 -1,1l0,9c0,0.549 0.451,1 1,1Zm10.485,5l-1.485,0l0,-5l5.057,0l-3.572,5Zm14.388,-7l-23.873,0l0,-3l20,0c1.817,0.002 3.416,1.241 3.873,3Zm-23.873,-7l2.382,0l1,2l-3.382,0l0,-2Z" style="fill:#fff;fill-rule:nonzero;"/><rect x="34" y="15" width="4" height="2" style="fill:#fff;"/><rect x="49" y="15" width="4" height="2" style="fill:#fff;"/><path d="M55,62l0,-13.09c2.875,-0.486 5,-3 5,-5.916c0,-3.292 -2.708,-6 -6,-6c-3.292,0 -6,2.708 -6,6c0,2.916 2.125,5.43 5,5.916l0,13.09l2,0Zm-5,-19c0,-2.194 1.806,-4 4,-4c2.194,0 4,1.806 4,4c0,2.194 -1.806,4 -4,4c-2.194,0 -4,-1.806 -4,-4Z" style="fill:#fff;fill-rule:nonzero;"/><path d="M3,59l2.142,0c0.448,1.758 2.043,2.999 3.858,2.999c1.815,0 3.41,-1.241 3.858,-2.999l16.284,0c0.448,1.758 2.043,2.999 3.858,2.999c1.815,0 3.41,-1.241 3.858,-2.999l4.142,0c0.549,0 1,-0.451 1,-1l0,-20c0,-0.549 -0.451,-1 -1,-1l-38,0c-0.549,0 -1,0.451 -1,1l0,20c0,0.549 0.451,1 1,1Zm6,1c-1.097,0 -2,-0.903 -2,-2c0,-1.097 0.903,-2 2,-2c1.097,0 2,0.903 2,2c0,1.097 -0.903,2 -2,2Zm24,0c-1.097,0 -2,-0.903 -2,-2c0,-1.097 0.903,-2 2,-2c1.097,0 2,0.903 2,2c0,1.097 -0.903,2 -2,2Zm7,-13l-8,0l0,-4l8,0l0,4Zm0,-8l0,2l-9,0c-0.549,0 -1,0.451 -1,1l0,6c0,0.549 0.451,1 1,1l9,0l0,2l-2,0l0,2l2,0l0,4l-3.142,0c-0.448,-1.758 -2.043,-2.999 -3.858,-2.999c-1.815,0 -3.41,1.241 -3.858,2.999l-16.284,0c-0.448,-1.758 -2.043,-2.999 -3.858,-2.999c-1.815,0 -3.41,1.241 -3.858,2.999l-1.142,0l0,-4l2,0l0,-2l-2,0l0,-2l3,0c0.549,0 1,-0.451 1,-1l0,-6c0,-0.549 -0.451,-1 -1,-1l-3,0l0,-2l36,0Zm-36,4l2,0l0,4l-2,0l0,-4Z" style="fill:#fff;fill-rule:nonzero;"/></g></svg>