<?xml version="1.0" encoding="UTF-8" standalone="no"?><!DOCTYPE svg PUBLIC "-//W3C//DTD SVG 1.1//EN" "http://www.w3.org/Graphics/SVG/1.1/DTD/svg11.dtd"><svg width="100%" height="100%" viewBox="0 0 64 64" version="1.1" xmlns="http://www.w3.org/2000/svg" xmlns:xlink="http://www.w3.org/1999/xlink" xml:space="preserve" xmlns:serif="http://www.serif.com/" style="fill-rule:evenodd;clip-rule:evenodd;stroke-linejoin:round;stroke-miterlimit:2;"><g><path d="M32.006,2c-0.004,0 -0.008,0 -0.013,0c-16.457,0 -30,13.542 -30,30c0,16.458 13.543,30 30,30c5.046,0 10.01,-1.273 14.433,-3.7c6.07,2.177 13.457,0.742 13.776,0.676c0.466,-0.093 0.804,-0.506 0.804,-0.98c0,-0.334 -0.167,-0.647 -0.445,-0.832c-2.341,-1.661 -4.04,-4.079 -4.807,-6.846c4.074,-5.234 6.276,-11.686 6.252,-18.318c-0.018,-16.45 -13.549,-29.981 -30,-30Zm21.863,47.483c-0.2,0.25 -0.268,0.581 -0.184,0.89c0.669,2.621 2.02,5.02 3.915,6.95c-2.643,0.269 -7.173,0.412 -10.89,-1.05c-0.282,-0.11 -0.598,-0.087 -0.862,0.062c-4.218,2.399 -8.989,3.661 -13.842,3.661c-15.36,0 -28,-12.64 -28,-28c0,-15.361 12.64,-28 28,-28c15.361,0 28,12.639 28,28c0,0.001 0,0.003 0,0.004c0.023,6.358 -2.145,12.534 -6.137,17.483Z" style="fill:#fff;fill-rule:nonzero;"/><path d="M32.006,6l0,2c13.161,0.015 23.985,10.84 24,24l2,0c-0.015,-14.257 -11.742,-25.984 -26,-26Z" style="fill:#fff;fill-rule:nonzero;"/><path d="M8.006,32l-2,0c0.016,14.257 11.743,25.984 26,26l0,-2c-13.16,-0.015 -23.984,-10.84 -24,-24Z" style="fill:#fff;fill-rule:nonzero;"/><rect x="28.006" y="6" width="2" height="2" style="fill:#fff;"/><path d="M37.006,41.356l0,-4.356l3,0c0.381,0.002 0.73,-0.213 0.9,-0.553l2,-4c0.053,-0.144 0.086,-0.294 0.1,-0.447l0,-3l1,0c0.549,0 1,-0.451 1,-1l0,-4c0,-0.549 -0.451,-1 -1,-1l-1,0l0,-5c0,-0.549 -0.451,-1 -1,-1l-4,0c-0.548,0 -1,0.451 -1,1l0,5l-2,0l0,-5c0,-0.549 -0.451,-1 -1,-1l-4,0c-0.548,0 -1,0.451 -1,1l0,5l-1,0c-0.548,0 -1,0.451 -1,1l0,4c0,0.549 0.452,1 1,1l1,0l0,3c0.016,0.153 0.051,0.303 0.105,0.447l2,4c0.17,0.339 0.517,0.553 0.895,0.553l3,0l0,4.356c-1.703,-2.12 -4.28,-3.355 -7,-3.356l-7,0l0,3c0.006,4.935 4.065,8.995 9,9l5,0l0,5l2,0l0,-5l5,0c4.936,-0.005 8.995,-4.065 9,-9l0,-3l-7,0c-2.719,0.001 -5.296,1.236 -7,3.356Zm-2,5.776l-7.445,-4.964l-1.11,1.664l6.255,4.168l-2.7,0c-3.838,-0.004 -6.995,-3.162 -7,-7l0,-1l5,0c3.839,0.004 6.996,3.162 7,7l0,0.132Zm4,-28.132l2,0l0,4l-2,0l0,-4Zm-8,0l2,0l0,4l-2,0l0,-4Zm-2,8l0,-2l14,0l0,2l-14,0Zm2,4l0,-2l10,0l0,2l-10,0Zm1.618,4l-1,-2l8.764,0l-1,2l-6.764,0Zm16.382,6c-0.004,3.838 -3.161,6.996 -7,7l-2.7,0l6.252,-4.168l-1.11,-1.664l-7.442,4.964l0,-0.132c0.005,-3.838 3.162,-6.996 7,-7l5,0l0,1Z" style="fill:#fff;fill-rule:nonzero;"/><path d="M11.006,25l4,0l0,8c0,0.457 0.313,0.858 0.755,0.97c0.081,0.02 0.163,0.03 0.245,0.03c0.368,0 0.706,-0.203 0.88,-0.526l7,-13c0.079,-0.146 0.12,-0.309 0.12,-0.474c0,-0.548 -0.451,-1 -1,-1l-3.483,0l2.4,-5.606c0.054,-0.124 0.081,-0.259 0.081,-0.394c0,-0.548 -0.45,-0.999 -0.998,-1l-5,0c-0.391,0 -0.748,0.23 -0.91,0.586l-5,11c-0.059,0.13 -0.089,0.271 -0.089,0.414c0,0.548 0.451,1 0.999,1Zm5.644,-11l2.839,0l-2.4,5.606c-0.053,0.124 -0.081,0.259 -0.081,0.394c0,0.548 0.451,0.999 0.998,1l3.326,0l-4.326,8.033l0,-5.033c0,-0.549 -0.451,-1 -1,-1l-3.447,0l4.091,-9Z" style="fill:#fff;fill-rule:nonzero;"/><path d="M50.006,27c-2.194,0 -4,1.806 -4,4c0,2.194 1.806,4 4,4c2.195,0 4,-1.806 4,-4c0,-2.194 -1.805,-4 -4,-4Zm0,6c-1.097,0 -2,-0.903 -2,-2c0,-1.097 0.903,-2 2,-2c1.098,0 2,0.903 2,2c0,1.097 -0.902,2 -2,2Z" style="fill:#fff;fill-rule:nonzero;"/><path d="M20.006,33c0,1.646 1.355,3 3,3c1.646,0 3,-1.354 3,-3c0,-1.646 -1.354,-3 -3,-3c-1.645,0 -3,1.354 -3,3Zm4,0c0,0.549 -0.451,1 -1,1c-0.548,0 -1,-0.451 -1,-1c0,-0.549 0.452,-1 1,-1c0.549,0 1,0.451 1,1Z" style="fill:#fff;fill-rule:nonzero;"/></g></svg>