<svg xmlns="http://www.w3.org/2000/svg" xmlns:xlink="http://www.w3.org/1999/xlink" version="1.1" x="0px" y="0px" viewBox="0 0 100 100" xml:space="preserve"><style type="text/css">
	.st0{fill:none;}
</style><g><circle class="st0" cx="66" cy="36" r="5"/><circle class="st0" cx="34" cy="36" r="5"/><path class="st0" d="M50,9C27.4,9,9,27.4,9,50s18.4,41,41,41s41-18.4,41-41S72.6,9,50,9z M66,27c5,0,9,4,9,9s-4,9-9,9s-9-4-9-9   S61,27,66,27z M34,27c5,0,9,4,9,9s-4,9-9,9s-9-4-9-9S29,27,34,27z M75.4,65.9c-4,4-9.3,6.1-14.7,6.1c-4.5,0-9-1.5-12.8-4.4   c-6.1-4.8-14.6-4.8-20.7,0c-0.9,0.7-2.1,0.5-2.8-0.3c-0.7-0.9-0.5-2.1,0.3-2.8c7.5-5.9,18.1-5.9,25.6,0c6.7,5.2,16.2,4.7,22.2-1.3   c0.8-0.8,2-0.8,2.8,0S76.2,65.1,75.4,65.9z"/><path d="M50,5C25.2,5,5,25.2,5,50c0,24.8,20.2,45,45,45c24.8,0,45-20.2,45-45C95,25.2,74.8,5,50,5z M50,91C27.4,91,9,72.6,9,50   S27.4,9,50,9s41,18.4,41,41S72.6,91,50,91z"/><path d="M34,45c5,0,9-4,9-9s-4-9-9-9s-9,4-9,9S29,45,34,45z M34,31c2.8,0,5,2.2,5,5s-2.2,5-5,5s-5-2.2-5-5S31.2,31,34,31z"/><path d="M66,45c5,0,9-4,9-9s-4-9-9-9s-9,4-9,9S61,45,66,45z M66,31c2.8,0,5,2.2,5,5s-2.2,5-5,5s-5-2.2-5-5S63.2,31,66,31z"/><path d="M72.6,63.1c-6,6-15.5,6.6-22.2,1.3c-7.5-5.9-18.1-5.9-25.6,0c-0.9,0.7-1,1.9-0.3,2.8c0.7,0.9,1.9,1,2.8,0.3   c6.1-4.8,14.6-4.8,20.7,0c3.8,3,8.3,4.4,12.8,4.4c5.3,0,10.7-2,14.7-6.1c0.8-0.8,0.8-2,0-2.8S73.4,62.3,72.6,63.1z"/></g></svg>
