<?xml version="1.0" encoding="UTF-8" standalone="no"?>
<!DOCTYPE svg PUBLIC "-//W3C//DTD SVG 1.1//EN" "http://www.w3.org/Graphics/SVG/1.1/DTD/svg11.dtd">
<svg width="100%" height="100%" viewBox="0 0 100 100" version="1.1" xmlns="http://www.w3.org/2000/svg" xmlns:xlink="http://www.w3.org/1999/xlink" xml:space="preserve" xmlns:serif="http://www.serif.com/" style="fill-rule:evenodd;clip-rule:evenodd;stroke-linejoin:round;stroke-miterlimit:2;">
    <g transform="matrix(1,0,0,1,0.0005,-0.0005)">
        <g>
            <path d="M54.799,69.4C54.799,66.394 51.4,63.204 51.012,62.85C50.438,62.327 49.562,62.327 48.99,62.85C48.949,62.887 47.983,63.773 47.054,64.994C46.552,65.653 46.68,66.595 47.339,67.096C47.997,67.598 48.939,67.47 49.441,66.811C49.63,66.563 49.822,66.331 50.004,66.122C50.92,67.187 51.8,68.527 51.8,69.401C51.8,71.128 50.423,71.261 50.001,71.261C49.471,71.261 48.235,71.086 48.203,69.469C48.186,68.652 47.518,67.999 46.704,67.999L46.673,67.999C45.845,68.016 45.187,68.7 45.203,69.529C45.268,72.78 47.735,74.26 50.001,74.26C52.385,74.261 54.799,72.591 54.799,69.4Z" style="fill:white;fill-rule:nonzero;"/>
            <path d="M29.25,30.829L58.25,30.829C59.078,30.829 59.75,30.157 59.75,29.329C59.75,28.501 59.078,27.829 58.25,27.829L29.25,27.829C28.422,27.829 27.75,28.501 27.75,29.329C27.75,30.157 28.422,30.829 29.25,30.829Z" style="fill:white;fill-rule:nonzero;"/>
            <path d="M90.405,12.118L9.595,12.118C7.062,12.118 5,14.179 5,16.712C5,19.245 7.062,21.307 9.595,21.307L9.807,21.307L9.807,24.319C9.807,27.644 12.314,30.39 15.536,30.778L15.536,75.36L14.4,75.36C11.867,75.36 9.806,77.421 9.806,79.954L9.806,86.383C9.806,87.211 10.478,87.883 11.306,87.883L88.693,87.883C89.521,87.883 90.193,87.211 90.193,86.383L90.193,79.954C90.193,77.421 88.132,75.36 85.599,75.36L84.463,75.36L84.463,30.777C87.686,30.389 90.192,27.643 90.192,24.318L90.192,21.306L90.404,21.306C92.937,21.306 94.999,19.244 94.999,16.711C94.999,14.178 92.938,12.118 90.405,12.118ZM90.405,18.307L83.501,18.307C82.673,18.307 82.001,18.979 82.001,19.807C82.001,20.635 82.673,21.307 83.501,21.307L87.193,21.307L87.193,24.319C87.193,26.255 85.618,27.83 83.681,27.83L63.001,27.83C62.173,27.83 61.501,28.502 61.501,29.33C61.501,30.158 62.173,30.83 63.001,30.83L71.167,30.83L71.167,35.334C71.167,36.162 71.839,36.834 72.667,36.834C73.495,36.834 74.167,36.162 74.167,35.334L74.167,30.83L76.333,30.83L76.333,33C76.333,33.828 77.005,34.5 77.833,34.5C78.661,34.5 79.333,33.828 79.333,33L79.333,30.829L81.464,30.829L81.464,75.359L79.168,75.359C78.34,75.359 77.668,76.031 77.668,76.859C77.668,77.687 78.34,78.359 79.168,78.359L85.6,78.359C86.479,78.359 87.194,79.074 87.194,79.953L87.194,84.882L12.807,84.882L12.807,79.953C12.807,79.074 13.522,78.359 14.401,78.359L17,78.359C17.006,78.359 17.012,78.357 17.018,78.357C17.024,78.357 17.03,78.359 17.036,78.359C17.864,78.359 18.536,77.687 18.536,76.859L18.536,30.829L24.498,30.829C25.326,30.829 25.998,30.157 25.998,29.329C25.998,28.501 25.326,27.829 24.498,27.829L16.318,27.829C14.381,27.829 12.806,26.254 12.806,24.318L12.806,21.306L78.667,21.306C79.495,21.306 80.167,20.634 80.167,19.806C80.167,18.978 79.495,18.306 78.667,18.306L9.595,18.306C8.716,18.307 8,17.591 8,16.712C8,15.833 8.716,15.118 9.595,15.118L90.406,15.118C91.285,15.118 92.001,15.833 92.001,16.712C92.001,17.591 91.284,18.307 90.405,18.307Z" style="fill:white;fill-rule:nonzero;"/>
            <path d="M28.945,61.28L28.945,75.359L27.333,75.359L27.333,74.083C27.333,73.255 26.661,72.583 25.833,72.583C25.005,72.583 24.333,73.255 24.333,74.083L24.333,75.359L20.812,75.359C19.984,75.359 19.312,76.031 19.312,76.859C19.312,77.687 19.984,78.359 20.812,78.359L74.5,78.359C75.328,78.359 76,77.687 76,76.859C76,76.031 75.328,75.359 74.5,75.359L71.055,75.359L71.055,61.28C71.055,49.67 61.61,40.224 50,40.224C38.39,40.224 28.945,49.67 28.945,61.28ZM42.851,70.679C41.641,68.09 42.148,65.728 43.059,62.417L44.664,56.585L45.622,58.155C45.931,58.662 46.51,58.944 47.098,58.861C47.687,58.784 48.174,58.366 48.342,57.797L50.1,51.812L52.462,58.8C52.649,59.351 53.137,59.745 53.715,59.81C54.301,59.884 54.858,59.6 55.161,59.104L56.019,57.705L56.445,59.686C56.595,60.382 56.767,61.084 56.94,61.789C57.733,65.016 58.481,68.062 57.061,70.85C55.708,73.504 52.912,75.22 49.935,75.22C46.92,75.219 44.139,73.437 42.851,70.679ZM68.055,61.28L68.055,75.359L57.277,75.359C58.267,74.471 59.118,73.42 59.735,72.21C61.661,68.43 60.701,64.521 59.853,61.072C59.687,60.396 59.522,59.723 59.378,59.054L58.165,53.409C58.036,52.809 57.556,52.349 56.951,52.246C56.345,52.142 55.74,52.418 55.42,52.94L54.277,54.803L51.42,46.349C51.214,45.739 50.642,45.329 49.999,45.329L49.969,45.329C49.315,45.343 48.744,45.778 48.56,46.406L46.418,53.697L45.418,52.058C45.106,51.547 44.525,51.273 43.929,51.354C43.337,51.437 42.851,51.865 42.692,52.442L40.166,61.619C39.321,64.686 38.364,68.163 40.132,71.946C40.746,73.261 41.611,74.409 42.646,75.357L31.945,75.357L31.945,61.28C31.945,51.324 40.045,43.224 50,43.224C59.955,43.224 68.055,51.324 68.055,61.28Z" style="fill:white;fill-rule:nonzero;"/>
        </g>
    </g>
</svg>
