<?xml version="1.0" standalone="no"?>
<!DOCTYPE svg PUBLIC "-//W3C//DTD SVG 20010904//EN"
 "http://www.w3.org/TR/2001/REC-SVG-20010904/DTD/svg10.dtd">
<svg version="1.0" xmlns="http://www.w3.org/2000/svg"
 width="512.000000pt" height="512.000000pt" viewBox="0 0 512.000000 512.000000"
 preserveAspectRatio="xMidYMid meet">
<metadata>
Created by potrace 1.11, written by Peter Selinger 2001-2013
</metadata>
<g transform="translate(0.000000,512.000000) scale(0.100000,-0.100000)"
fill="#000000" stroke="none">
<path d="M249 3373 c-13 -16 -15 -103 -15 -665 1 -473 4 -650 13 -659 7 -7 62
-12 154 -13 114 -1 147 2 161 14 16 14 18 42 20 320 3 282 5 308 23 344 62
122 223 143 301 40 l29 -37 3 -329 c3 -302 5 -329 21 -340 24 -17 297 -16 314
1 15 15 16 651 1 740 -25 148 -117 255 -249 289 -150 40 -297 5 -397 -94 l-48
-47 0 216 c0 196 -2 217 -17 226 -10 5 -81 10 -159 10 -123 2 -142 0 -155 -16z"/>
<path d="M3175 3089 c-91 -12 -180 -60 -242 -129 l-22 -25 -1 51 c0 77 -8 81
-173 79 -110 -1 -140 -4 -147 -15 -12 -18 -11 22 -12 -689 0 -540 1 -596 16
-607 25 -18 302 -15 318 3 7 9 11 76 11 194 0 99 4 182 8 185 4 2 12 -4 18
-14 14 -27 80 -70 142 -93 39 -15 77 -21 139 -20 47 0 92 2 100 4 71 18 114
37 166 73 96 68 162 173 190 304 4 19 9 42 11 50 2 8 4 56 4 106 1 354 -221
584 -526 543z m10 -292 c11 -3 22 -6 25 -6 11 -2 67 -58 81 -81 29 -47 42
-118 36 -190 -12 -142 -88 -223 -210 -223 -48 0 -65 5 -99 29 -76 53 -111 150
-96 270 18 157 123 237 263 201z"/>
<path d="M4297 3095 c-1 -2 -24 -5 -52 -8 -133 -16 -226 -60 -322 -156 -146
-144 -191 -385 -111 -591 67 -171 234 -298 427 -325 48 -7 188 -7 226 0 106
19 227 80 292 146 54 55 64 71 55 86 -8 13 -235 93 -263 93 -10 0 -27 -13 -38
-29 -44 -61 -167 -86 -254 -53 -73 29 -146 126 -133 178 8 29 -29 26 394 28
326 1 345 2 358 20 8 12 12 34 9 55 -2 20 -7 54 -9 75 -31 234 -205 429 -417
466 -55 9 -157 18 -162 15z m150 -268 c42 -29 83 -91 83 -126 0 -13 -9 -25
-22 -30 -32 -11 -350 -13 -367 -2 -38 25 5 116 77 162 39 25 52 28 116 26 61
-2 79 -6 113 -30z"/>
<path d="M1760 3071 c-205 -55 -349 -200 -394 -401 -18 -77 -14 -213 8 -283
90 -286 385 -435 715 -363 103 23 184 68 261 146 100 100 148 210 154 357 11
263 -147 475 -404 544 -87 23 -253 23 -340 0z m279 -291 c144 -73 176 -303 59
-420 -124 -124 -338 -71 -396 97 -18 52 -9 172 15 218 62 118 205 165 322 105z"/>
</g>
</svg>
